<?xml version="1.0" encoding="UTF-8"?>
<!DOCTYPE svg PUBLIC "-//W3C//DTD SVG 1.1//EN" "http://www.w3.org/Graphics/SVG/1.1/DTD/svg11.dtd">
<svg xmlns="http://www.w3.org/2000/svg" version="1.1" width="1046px" height="1046px" style="shape-rendering:geometricPrecision; text-rendering:geometricPrecision; image-rendering:optimizeQuality; fill-rule:evenodd; clip-rule:evenodd" xmlns:xlink="http://www.w3.org/1999/xlink">
<g><path style="opacity:0.994" fill="#fefefe" d="M 491.5,-0.5 C 512.167,-0.5 532.833,-0.5 553.5,-0.5C 715.362,12.8303 845.529,83.497 944,211.5C 1004.65,294.935 1038.48,388.268 1045.5,491.5C 1045.5,512.167 1045.5,532.833 1045.5,553.5C 1032.17,715.362 961.503,845.529 833.5,944C 750.065,1004.65 656.732,1038.48 553.5,1045.5C 532.833,1045.5 512.167,1045.5 491.5,1045.5C 329.638,1032.17 199.471,961.503 101,833.5C 40.3506,750.065 6.51722,656.732 -0.5,553.5C -0.5,532.833 -0.5,512.167 -0.5,491.5C 12.8303,329.638 83.497,199.471 211.5,101C 294.935,40.3506 388.268,6.51722 491.5,-0.5 Z"/></g>
<g><path style="opacity:1" fill="#840c16" d="M 499.5,89.5 C 655.702,86.1944 780.869,146.194 875,269.5C 950.277,378.45 973.277,497.783 944,627.5C 910.609,751.185 838.109,844.019 726.5,906C 620.758,960.107 510.758,970.774 396.5,938C 282.894,901.377 197.394,830.877 140,726.5C 85.8926,620.758 75.2259,510.758 108,396.5C 148.177,274.331 226.011,185.165 341.5,129C 391.84,106.082 444.506,92.9151 499.5,89.5 Z"/></g>
<g><path style="opacity:1" fill="#fefefe" d="M 369.5,171.5 C 404.173,171.167 438.84,171.5 473.5,172.5C 539.117,300.235 605.117,427.735 671.5,555C 637.495,555.833 603.495,555.667 569.5,554.5C 520.422,459.343 471.088,364.343 421.5,269.5C 371.912,364.343 322.578,459.343 273.5,554.5C 239.505,555.667 205.505,555.833 171.5,555C 238.164,427.505 304.164,299.672 369.5,171.5 Z"/></g>
<g><path style="opacity:1" fill="#fefefe" d="M 369.5,480.5 C 403.336,479.17 437.336,479.17 471.5,480.5C 520.323,575.481 569.657,670.148 619.5,764.5C 669.343,670.148 718.677,575.481 767.5,480.5C 801.495,479.333 835.495,479.167 869.5,480C 803.117,607.265 737.117,734.765 671.5,862.5C 636.833,863.833 602.167,863.833 567.5,862.5C 501.981,734.791 435.981,607.458 369.5,480.5 Z"/></g>
</svg>
